<svg xmlns="http://www.w3.org/2000/svg" version="1.1" xmlns:xlink="http://www.w3.org/1999/xlink" xmlns:svgjs="http://svgjs.com/svgjs" width="1920.004" height="1193.001" preserveAspectRatio="none" viewBox="0 0 1920.004 1193.001"><g mask="url(&quot;#SvgjsMask1107&quot;)" fill="none"><rect width="1920.004" height="1193.001" x="0" y="0" fill="rgba(240, 240, 240, 1)"></rect><path d="M-3.3 734.95C173.92 729.47 303.6 453.66 650.67 460.56 997.75 467.46 1067.7 1131.4 1304.64 1201.21" stroke="rgba(1, 64, 25, 0.58)" stroke-width="2"></path><path d="M-251.86 310.38C-45.42 321.58 48.19 653.26 481.72 692.14 915.24 731.02 987.21 1217.63 1215.29 1247.8" stroke="rgba(1, 64, 25, 0.58)" stroke-width="2"></path><path d="M-39.7 289.87C124.33 297.28 155.65 495.51 551.38 576.19 947.1 656.87 909.65 1295.37 1142.45 1390.87" stroke="rgba(1, 64, 25, 0.58)" stroke-width="2"></path><path d="M-92.77 795.87C117.29 782.79 244.28 377.37 644.93 390.25 1045.58 403.12 1090.05 1300.55 1382.62 1423.7" stroke="rgba(1, 64, 25, 0.58)" stroke-width="2"></path><path d="M-342.89 1018.6C-139.38 1007.05 95.98 633.57 377.57 636.84 659.17 640.11 574.76 1226.35 737.8 1336.43" stroke="rgba(1, 64, 25, 0.58)" stroke-width="2"></path></g><defs><mask id="SvgjsMask1107"><rect width="1920.004" height="1193.001" fill="#ffffff"></rect></mask></defs></svg>